:SAMPLES-PER-SECOND 30
:FULLY-SPECIFIED
:DEGREES
670
root  -59.7571 40.3726 -5.3037 -18.3041 -84.2153 23.4885
RightUpLeg  -17.8564 -4.66053 -2.75061
RightLeg  4.65378 14.7609 -0.595321
RightFoot  6.45614 -0.377575 2.69415
RightToes  5.23868e-010 0 -3.6325e-017
Spine  26.4753 -3.21858 6.80234
Spine1  3.7702 0.406428 -10.4073
HEad  -25.3168 2.18592 -4.5486
LeftShoulder1  1.15994 -9.33948 -0.672904
LeftArm  -52.7236 -69.8745 -4.89702
LeftForeArm  -23.2716 -9.15157 3.44637
LeftHand  -0.105023 8.38424 -2.18514
RightShoulder  0.74118 4.25538 1.27797
RightArm  -56.3375 55.4186 25.0918
RightForeArm  -20.6739 21.8033 3.70408
RightHand  -0.70053 5.77134 -7.58958
LeftUpLeg  -16.4989 3.28848 0.446413
LeftLeg  3.33999 -11.4772 -0.886334
LeftFoot  8.87008 -0.277912 1.25461
LeftToes  -4.9204e-010 1.02043e-011 -1.81609e-011
671
root  -59.7311 40.3458 -5.51469 -16.7587 -84.2031 21.1507
RightUpLeg  -17.2742 -4.21398 -2.27577
RightLeg  5.13855 14.1859 -0.632273
RightFoot  6.01109 -0.335606 2.46647
RightToes  5.23868e-010 0 -3.6325e-017
Spine  25.7987 -2.99065 5.80092
Spine1  4.6831 0.0925713 -8.79663
HEad  -24.261 4.08529 -7.11722
LeftShoulder1  1.27344 -8.18098 -2.82713
LeftArm  -49.7398 -67.4417 -10.954
LeftForeArm  -19.0828 -12.2433 3.07836
LeftHand  -0.0645192 7.5584 -1.20759
RightShoulder  0.895371 3.70456 4.53786
RightArm  -47.8025 52.4045 32.1167
RightForeArm  -17.0463 27.5918 7.00309
RightHand  -1.01442 8.26048 -8.98784
LeftUpLeg  -16.1142 3.86708 1.02844
LeftLeg  4.13126 -12.1715 -1.1994
LeftFoot  8.46932 -0.184223 0.759438
LeftToes  -4.9204e-010 1.02043e-011 -1.81609e-011
672
root  -59.7033 40.3114 -5.72333 -17.8525 -83.756 21.5356
RightUpLeg  -16.9662 -4.66497 -2.33615
RightLeg  6.10995 13.9594 -0.124284
RightFoot  5.35441 -0.287981 2.2137
RightToes  5.23868e-010 0 -3.6325e-017
Spine  24.7943 -2.66029 4.69106
Spine1  5.82815 -0.307911 -6.78784
HEad  -22.841 5.83103 -9.53246
LeftShoulder1  1.37816 -6.73279 -5.65916
LeftArm  -48.6565 -64.4883 -17.2098
LeftForeArm  -10.4313 -15.6844 1.18603
LeftHand  -0.0353063 7.00731 0.364348
RightShoulder  1.01078 2.80942 8.66337
RightArm  -36.199 49.2786 37.6161
RightForeArm  -15.3719 32.0124 7.85226
RightHand  -1.17824 9.37986 -9.60973
LeftUpLeg  -15.742 3.8528 1.13469
LeftLeg  4.68537 -12.616 -1.30279
LeftFoot  8.28663 -0.105169 0.316661
LeftToes  -4.9204e-010 1.02043e-011 -1.81609e-011
673
root  -59.6681 40.2965 -5.95669 -15.5817 -82.6612 18.2761
RightUpLeg  -15.8408 -5.85599 -2.61477
RightLeg  6.23295 13.4539 0.824092
RightFoot  4.75375 -0.338034 2.62272
RightToes  5.23868e-010 0 -3.6325e-017
Spine  23.1633 -2.75771 4.91895
Spine1  8.28406 -0.468286 -6.23657
HEad  -21.8146 7.71402 -12.4528
LeftShoulder1  1.42885 -5.86392 -7.72804
LeftArm  -46.964 -60.2977 -23.5216
LeftForeArm  0.242824 -19.2116 -1.78958
LeftHand  -0.0280681 5.26157 2.33594
RightShoulder  1.03352 1.62449 13.1698
RightArm  -26.9729 45.7026 40.6345
RightForeArm  -16.0895 33.8031 8.38894
RightHand  -1.26 9.24587 -10.33
LeftUpLeg  -15.1472 3.75829 1.27732
LeftLeg  5.08594 -13.8821 -1.2584
LeftFoot  8.38273 0.00481003 -0.323118
LeftToes  -4.9204e-010 1.02043e-011 -1.81609e-011
674
root  -59.6304 40.2668 -6.18398 -14.7638 -80.8015 16.9348
RightUpLeg  -15.268 -7.49147 -3.42865
RightLeg  6.74658 13.0058 1.96367
RightFoot  4.11459 -0.347657 2.76785
RightToes  5.23868e-010 0 -3.6325e-017
Spine  22.3121 -2.76458 4.31148
Spine1  8.94472 -1.14475 -4.42985
HEad  -20.063 10.5895 -15.8869
LeftShoulder1  1.49064 -4.65982 -11.0585
LeftArm  -39.139 -55.725 -29.4648
LeftForeArm  5.04942 -21.6204 -3.89795
LeftHand  -0.0663283 3.90397 3.78843
RightShoulder  1.03931 1.00972 16.4045
RightArm  -18.1675 40.4657 43.2267
RightForeArm  -18.7274 33.7128 8.49083
RightHand  -1.15517 8.78728 -9.80308
LeftUpLeg  -15.0964 3.34476 1.00612
LeftLeg  5.40924 -15.3722 -1.44542
LeftFoot  8.62321 0.159093 -1.18671
LeftToes  -4.9204e-010 1.02043e-011 -1.81609e-011
675
root  -59.5733 40.2808 -6.42366 -14.5793 -78.6478 16.2394
RightUpLeg  -14.482 -8.95772 -4.28034
RightLeg  6.81988 12.0111 2.771
RightFoot  4.14158 -0.237714 1.95561
RightToes  5.23868e-010 0 -3.6325e-017
Spine  21.3752 -2.65998 4.40116
Spine1  9.95965 -1.2927 -3.54883
HEad  -18.2263 12.8182 -18.5159
LeftShoulder1  1.56866 -3.87942 -14.3163
LeftArm  -28.175 -50.472 -36.0595
LeftForeArm  6.45065 -23.5725 -4.73547
LeftHand  -0.107715 3.25162 5.13647
RightShoulder  0.949101 0.236501 19.0157
RightArm  -9.22184 35.1571 44.4431
RightForeArm  -22.5143 31.2579 7.98974
RightHand  -1.14767 8.63087 -9.80622
LeftUpLeg  -14.4074 2.37999 0.484471
LeftLeg  4.30484 -16.2081 -0.730399
LeftFoot  8.61347 0.525886 -3.31627
LeftToes  -4.9204e-010 1.02043e-011 -1.81609e-011
676
root  -59.4827 40.2564 -6.61953 -12.8538 -76.3441 13.7749
RightUpLeg  -13.6551 -9.88619 -4.80441
RightLeg  7.189 10.4713 3.17685
RightFoot  3.98703 -0.194712 1.64968
RightToes  5.23868e-010 0 -3.6325e-017
Spine  20.4272 -2.74516 6.13422
Spine1  11.3004 -0.907092 -4.27713
HEad  -16.668 14.0722 -19.1111
LeftShoulder1  1.63246 -3.41931 -16.9166
LeftArm  -16.8333 -45.0579 -41.6717
LeftForeArm  4.45885 -23.8621 -4.84913
LeftHand  -0.110505 3.45884 5.92473
RightShoulder  0.81225 -0.510262 20.89
RightArm  -1.63669 29.7681 45.7175
RightForeArm  -23.2432 26.4376 6.75183
RightHand  -0.808553 6.89286 -7.98827
LeftUpLeg  -14.0375 1.96896 0.383435
LeftLeg  4.65975 -15.1406 -0.68767
LeftFoot  6.2045 0.876672 -5.95975
LeftToes  -4.9204e-010 1.02043e-011 -1.81609e-011
677
root  -59.376 40.3107 -6.82988 -14.1859 -74.3847 14.4297
RightUpLeg  -12.6326 -10.3823 -5.58999
RightLeg  6.86048 9.18865 2.93519
RightFoot  4.14398 -0.194462 1.63789
RightToes  5.23868e-010 0 -3.6325e-017
Spine  19.6611 -2.41547 6.58783
Spine1  12.7051 -0.248929 -4.82779
HEad  -15.5964 16.3224 -21.2847
LeftShoulder1  1.59218 -2.50249 -20.0516
LeftArm  -6.8091 -40.2503 -45.129
LeftForeArm  1.36234 -21.6619 -4.82996
LeftHand  -0.0481675 5.08519 4.79886
RightShoulder  0.77995 -0.698375 21.6709
RightArm  4.05873 24.8082 47.6653
RightForeArm  -25.2504 19.9116 5.70427
RightHand  -0.770235 7.41933 -7.32162
LeftUpLeg  -13.4359 2.39128 -0.169814
LeftLeg  5.99942 -9.84317 -0.96412
LeftFoot  3.25616 0.909608 -7.13009
LeftToes  -4.9204e-010 1.02043e-011 -1.81609e-011
678
root  -59.2578 40.3999 -7.01046 -15.2437 -71.709 15.2575
RightUpLeg  -11.6889 -11.2543 -6.88225
RightLeg  6.07314 7.64554 2.80502
RightFoot  4.31647 -0.231566 1.89817
RightToes  5.23868e-010 0 -3.6325e-017
Spine  18.6807 -2.297 6.99768
Spine1  13.7636 0.277658 -5.74543
HEad  -14.7472 18.0859 -22.9081
LeftShoulder1  1.62674 -1.89107 -23.9011
LeftArm  -1.88339 -35.4108 -46.9435
LeftForeArm  3.90775 -16.6781 -5.86355
LeftHand  -0.00958761 6.75657 2.79846
RightShoulder  0.689149 -1.09959 22.6631
RightArm  6.75593 21.016 49.7685
RightForeArm  -21.7139 11.8259 5.97199
RightHand  -0.771001 7.35118 -7.27264
LeftUpLeg  -12.8634 3.07305 -1.30032
LeftLeg  8.1558 -2.84461 -0.706585
LeftFoot  -0.276916 0.384933 -3.97361
LeftToes  -4.9204e-010 1.02043e-011 -1.81609e-011
679
root  -59.088 40.4478 -7.1824 -14.774 -68.4861 14.9044
RightUpLeg  -11.2896 -11.964 -7.99057
RightLeg  5.69187 5.33154 2.59927
RightFoot  4.53949 -0.237714 1.92773
RightToes  5.23868e-010 0 -3.6325e-017
Spine  17.5261 -2.33244 7.20716
Spine1  14.6054 0.475016 -6.38254
HEad  -14.4345 18.81 -22.4677
LeftShoulder1  1.56945 -1.29904 -26.5511
LeftArm  -4.36927 -30.6713 -47.9978
LeftForeArm  11.6212 -8.76366 -7.68558
LeftHand  -0.112228 3.27937 5.81493
RightShoulder  0.538205 -1.69044 23.7851
RightArm  8.03387 18.111 51.9761
RightForeArm  -16.1841 4.11785 6.72682
RightHand  -0.473336 4.20116 -5.97395
LeftUpLeg  -12.3746 4.93183 -2.33303
LeftLeg  10.6227 3.59068 0.230253
LeftFoot  -2.52215 0.167886 -2.02875
LeftToes  -4.9204e-010 1.02043e-011 -1.81609e-011
680
root  -58.9202 40.4752 -7.32139 -12.7554 -64.8242 13.0014
RightUpLeg  -10.7411 -12.6667 -8.79377
RightLeg  5.22005 2.31398 2.58411
RightFoot  4.83995 -0.207825 1.69381
RightToes  5.23868e-010 0 -3.6325e-017
Spine  16.5604 -2.65224 7.88294
Spine1  14.6745 0.418647 -7.12763
HEad  -13.7973 19.2295 -21.3433
LeftShoulder1  1.52086 -0.906765 -28.3596
LeftArm  -6.01976 -24.3943 -48.4311
LeftForeArm  14.5536 -1.73058 -7.0717
LeftHand  -0.0879907 4.10296 5.79807
RightShoulder  0.376538 -2.26542 25.0944
RightArm  8.69065 14.2203 53.9812
RightForeArm  -16.1195 -0.621833 6.99001
RightHand  -0.716687 4.92431 -8.36667
LeftUpLeg  -11.6766 8.24483 -2.73206
LeftLeg  13.3091 6.14426 1.29059
LeftFoot  -3.82265 0.117812 -1.44179
LeftToes  -4.9204e-010 1.02043e-011 -1.81609e-011
681
root  -58.7486 40.4888 -7.43979 -11.4689 -61.2602 11.6584
RightUpLeg  -9.97408 -13.3754 -9.67894
RightLeg  4.78372 -0.422879 2.6567
RightFoot  4.99313 -0.232212 1.85666
RightToes  5.23868e-010 0 -3.6325e-017
Spine  15.7773 -2.80773 9.12928
Spine1  14.9296 0.993059 -8.90999
HEad  -13.9496 18.9142 -19.9473
LeftShoulder1  1.51098 -0.826591 -28.8986
LeftArm  -7.1655 -17.2969 -48.368
LeftForeArm  13.7914 3.35914 -6.06357
LeftHand  0.056081 7.61438 4.53011
RightShoulder  0.129705 -3.09298 27.1893
RightArm  8.09908 9.50021 54.907
RightForeArm  -15.0612 -1.81563 6.71504
RightHand  -0.650009 4.04628 -8.2558
LeftUpLeg  -10.3872 11.7205 -2.52996
LeftLeg  15.6831 6.43479 2.10754
LeftFoot  -4.55328 0.0478779 -0.348515
LeftToes  -4.9204e-010 1.02043e-011 -1.81609e-011
